# Blender v2.92.0 OBJ File: 'car.blend'
# www.blender.org
mtllib car.mtl
o Cube_Cube.001
v -0.854272 -0.021564 3.436394
v -0.854272 -0.021564 -1.115102
v 0.854272 -0.021564 3.436394
v 0.854272 -0.021564 -1.115102
v -0.854272 -0.021564 1.189859
v -0.854272 -0.021564 1.481314
v -1.000000 0.124163 1.335587
v 0.854272 -0.021564 1.481314
v 0.854272 -0.021564 1.189859
v 1.000000 0.124163 1.335586
v -0.854272 -0.021564 2.649107
v -1.000000 0.124163 2.503380
v -0.854272 -0.021564 2.357652
v 1.000000 0.124163 2.503380
v 0.854272 -0.021564 2.649107
v 0.854272 -0.021564 2.357652
v 0.854272 -0.021564 -0.238764
v 1.000000 0.124163 -0.093037
v 0.854272 -0.021564 0.052691
v -1.000000 0.124163 -0.093037
v -0.854272 -0.021564 -0.238764
v -0.854272 -0.021564 0.052691
v -0.727985 1.636358 1.237005
v -1.000000 1.411305 1.273934
v -1.000000 1.399298 2.503380
v -0.701141 1.512175 2.623544
v -0.727985 1.088839 0.005544
v -1.000000 0.996304 0.349269
v -1.000000 0.674022 -0.928779
v -0.835871 0.843492 -0.994709
v -1.000000 0.495471 -1.096701
v -0.835871 0.560525 -1.260830
v -0.835871 0.124163 3.582122
v -1.000000 0.124163 3.417993
v -0.905240 0.029403 3.487362
v -1.000000 0.124163 -1.096701
v -0.835871 0.124163 -1.260830
v -0.905240 0.029403 -1.166070
v -1.000000 0.881730 3.417993
v -0.835871 0.932471 3.582122
v -1.000000 0.998801 3.267786
v -0.701141 1.191191 3.256568
v 0.727985 1.636358 1.237005
v 1.000000 1.411305 1.273934
v 0.701141 1.512175 2.623544
v 1.000000 1.399298 2.503380
v 1.000000 0.996304 0.349269
v 0.727985 1.088839 0.005544
v 1.000000 0.495471 -1.096701
v 0.835871 0.560525 -1.260830
v 0.835871 0.843492 -0.994709
v 1.000000 0.674022 -0.928779
v 1.000000 0.124163 3.417993
v 0.835871 0.124163 3.582122
v 0.905240 0.029403 3.487362
v 0.835871 0.124163 -1.260830
v 1.000000 0.124163 -1.096701
v 0.905240 0.029403 -1.166070
v 1.000000 0.998801 3.267786
v 0.701141 1.191191 3.256568
v 0.835871 0.932471 3.582122
v 1.000000 0.881730 3.417993
v -0.835871 1.130260 3.376732
v -0.835871 1.573106 2.503380
v 0.835871 1.573106 2.503380
v 0.835871 1.130260 3.376732
v -0.835871 1.680188 1.335586
v -0.835871 1.045009 -0.093037
v 0.835871 1.045009 -0.093037
v 0.835871 1.680188 1.335587
v -1.000000 0.665330 2.503380
v -1.000000 0.768225 1.273934
v -1.000000 0.554857 0.349269
v 1.000000 0.768362 1.273933
v 1.000000 0.556004 0.349269
v 1.000000 0.666134 2.503380
v -1.000000 0.871127 -0.093037
v -1.000000 1.506181 1.335586
v -1.000000 0.718771 1.335586
v -1.000000 0.401244 -0.093037
v 1.000000 1.506181 1.335587
v 1.000000 0.871127 -0.093037
v 1.000000 0.718871 1.335586
v 1.000000 0.402448 -0.093037
vt 0.645516 0.514243
vt 0.854484 0.514243
vt 0.854484 0.562500
vt 0.645516 0.562500
vt 0.625000 0.270516
vt 0.625000 0.479484
vt 0.546463 0.479484
vt 0.546463 0.270516
vt 0.143216 0.695943
vt 0.356784 0.695943
vt 0.356784 0.741557
vt 0.143216 0.741557
vt 0.143216 0.507799
vt 0.356784 0.507799
vt 0.356784 0.554701
vt 0.143216 0.554701
vt 0.417456 0.508784
vt 0.525445 0.508784
vt 0.575114 0.517771
vt 0.577772 0.562500
vt 0.496439 0.562500
vt 0.414581 0.562500
vt 0.397846 0.687500
vt 0.497925 0.687500
vt 0.597752 0.687500
vt 0.592823 0.731788
vt 0.558662 0.740491
vt 0.404776 0.740491
vt 0.143216 0.632799
vt 0.356784 0.632799
vt 0.356784 0.679701
vt 0.143216 0.679701
vt 0.143216 0.570299
vt 0.356784 0.570299
vt 0.356784 0.617201
vt 0.143216 0.617201
vt 0.404776 0.009509
vt 0.558662 0.009509
vt 0.592823 0.018212
vt 0.597752 0.062500
vt 0.497799 0.062500
vt 0.397846 0.062500
vt 0.506318 0.127697
vt 0.589663 0.127697
vt 0.567633 0.184803
vt 0.506929 0.184803
vt 0.497937 0.625000
vt 0.396408 0.625000
vt 0.854484 0.625000
vt 0.645516 0.687500
vt 0.645516 0.625000
vt 0.417926 0.270516
vt 0.417926 0.479484
vt 0.136845 0.505072
vt 0.145516 0.500000
vt 0.354484 0.500000
vt 0.363155 0.505072
vt 0.662357 0.694462
vt 0.837643 0.694462
vt 0.837643 0.731138
vt 0.662357 0.731138
vt 0.374004 0.744510
vt 0.414581 0.187500
vt 0.496176 0.187500
vt 0.577772 0.187500
vt 0.575114 0.232229
vt 0.525445 0.241216
vt 0.417456 0.241216
vt 0.143216 0.625000
vt 0.125000 0.625000
vt 0.125000 0.687500
vt 0.143216 0.687500
vt 0.125000 0.562500
vt 0.143216 0.562500
vt 0.125000 0.570299
vt 0.363155 0.744510
vt 0.354484 0.750000
vt 0.145516 0.750000
vt 0.136845 0.744510
vt 0.625000 0.770516
vt 0.625000 0.979484
vt 0.578080 0.979484
vt 0.578080 0.770516
vt 0.125000 0.740491
vt 0.406020 0.770516
vt 0.406020 0.979484
vt 0.378168 0.505072
vt 0.854484 0.687500
vt 0.125000 0.508784
vt 0.135258 0.750000
vt 0.131839 0.502928
vt 0.625000 0.062500
vt 0.625000 0.125000
vt 0.599437 0.125000
vt 0.625000 0.187500
vt 0.625000 0.235757
vt 0.546463 0.250000
vt 0.578080 0.000000
vt 0.625000 0.011900
vt 0.567279 1.000000
vt 0.406020 1.000000
vt 0.497923 0.125000
vt 0.375000 0.745245
vt 0.368161 0.502928
vt 0.599437 0.625000
vt 0.546463 0.500000
vt 0.625000 0.514243
vt 0.625000 0.738100
vt 0.578080 0.750000
vt 0.645516 0.738100
vt 0.659002 0.566813
vt 0.840998 0.566813
vt 0.840998 0.620687
vt 0.659002 0.620687
vt 0.854484 0.738100
vt 0.396408 0.125000
vt 0.506340 0.622303
vt 0.507173 0.565197
vt 0.567639 0.565197
vt 0.589664 0.622303
vn 0.0000 0.9759 -0.2181
vn 0.0000 0.6851 -0.7285
vn 0.0000 -1.0000 0.0000
vn 1.0000 0.0000 0.0000
vn -1.0000 0.0000 0.0000
vn -0.0000 0.9958 0.0913
vn 0.0000 0.0000 -1.0000
vn 0.0000 -0.7071 -0.7071
vn -0.0000 0.8919 0.4522
vn 0.7071 -0.7071 0.0000
vn -0.7071 -0.7071 0.0000
vn 0.0000 -0.7071 0.7071
vn 0.0000 0.7203 0.6937
vn 0.0000 0.0000 1.0000
vn -0.6947 -0.1862 0.6947
vn -0.6947 -0.1862 -0.6947
vn -0.7258 0.6850 0.0628
vn -0.6957 0.6564 -0.2918
vn -0.7071 0.4844 -0.5151
vn -0.7288 0.6674 -0.1531
vn -0.7071 0.0000 -0.7071
vn -0.6952 0.5382 0.4765
vn -0.7071 0.0000 0.7071
vn -0.6995 0.6354 0.3272
vn 0.6947 -0.1862 0.6947
vn 0.6947 -0.1862 -0.6947
vn 0.6957 0.6564 -0.2918
vn 0.7258 0.6850 0.0628
vn 0.7071 0.4844 -0.5151
vn 0.7288 0.6674 -0.1531
vn 0.7071 0.0000 -0.7071
vn 0.6952 0.5382 0.4765
vn 0.7071 0.0000 0.7071
vn 0.6995 0.6354 0.3272
vn 0.0000 0.9138 -0.4063
usemtl None
s off
f 51/1/1 30/2/1 68/3/1 69/4/1
f 30/5/2 51/6/2 50/7/2 32/8/2
f 11/9/3 15/10/3 3/11/3 1/12/3
f 2/13/3 4/14/3 17/15/3 21/16/3
f 57/17/4 49/18/4 52/19/4 82/20/4 84/21/4 18/22/4
f 14/23/4 76/24/4 46/25/4 59/26/4 62/27/4 53/28/4
f 6/29/3 8/30/3 16/31/3 13/32/3
f 22/33/3 19/34/3 9/35/3 5/36/3
f 34/37/5 39/38/5 41/39/5 25/40/5 71/41/5 12/42/5
f 72/43/5 24/44/5 28/45/5 73/46/5
f 18/22/4 84/21/4 83/47/4 10/48/4
f 67/49/6 65/50/6 70/51/6
f 10/48/4 83/47/4 76/24/4 14/23/4
f 37/52/7 32/8/7 50/7/7 56/53/7
f 4/14/8 2/13/8 38/54/8 37/55/8 56/56/8 58/57/8
f 45/58/9 26/59/9 42/60/9 60/61/9
f 3/11/10 15/10/10 14/23/10 53/28/10 55/62/10
f 20/63/5 80/64/5 77/65/5 29/66/5 31/67/5 36/68/5
f 5/36/11 6/69/11 7/70/11
f 8/30/10 9/35/10 10/48/10
f 11/9/11 12/71/11 13/72/11
f 14/23/10 15/10/10 16/31/10
f 17/15/10 18/22/10 19/34/10
f 20/73/11 21/74/11 22/75/11
f 1/12/12 3/11/12 55/76/12 54/77/12 33/78/12 35/79/12
f 66/80/13 63/81/13 40/82/13 61/83/13
f 11/9/11 1/12/11 35/79/11 34/84/11 12/71/11
f 22/33/11 5/36/11 7/70/11 20/73/11
f 16/31/10 8/30/10 10/48/10 14/23/10
f 8/30/3 6/29/3 5/36/3 9/35/3
f 6/29/11 13/32/11 12/71/11 7/70/11
f 54/85/14 61/83/14 40/82/14 33/86/14
f 15/10/3 11/9/3 13/32/3 16/31/3
f 9/35/10 19/34/10 18/22/10 10/48/10
f 17/15/10 4/14/10 58/87/10 57/17/10 18/22/10
f 19/34/3 22/33/3 21/16/3 17/15/3
f 67/49/6 64/88/6 65/50/6
f 2/13/11 21/16/11 20/73/11 36/89/11 38/54/11
f 33/90/15 34/84/15 35/79/15
f 36/89/16 37/91/16 38/54/16
f 64/92/17 67/93/17 78/94/17 25/40/17
f 67/93/18 68/95/18 77/65/18 78/94/18
f 31/67/19 29/66/19 30/96/19 32/97/19
f 29/66/20 77/65/20 68/95/20 30/96/20
f 32/8/21 37/52/21 36/68/21 31/67/21
f 41/39/22 39/38/22 40/98/22 63/99/22
f 39/100/23 34/101/23 33/86/23 40/82/23
f 25/40/24 41/39/24 63/99/24 64/92/24
f 71/41/5 25/40/5 78/94/5 79/102/5
f 53/103/25 54/77/25 55/76/25
f 56/56/26 57/104/26 58/57/26
f 69/4/27 70/51/27 81/105/27 82/20/27
f 70/51/28 65/50/28 46/25/28 81/105/28
f 52/19/29 49/18/29 50/106/29 51/107/29
f 82/20/30 52/19/30 51/1/30 69/4/30
f 49/18/31 57/17/31 56/53/31 50/7/31
f 62/27/32 59/26/32 66/108/32 61/109/32
f 53/28/33 62/27/33 61/83/33 54/85/33
f 59/26/34 46/25/34 65/50/34 66/110/34
f 48/111/35 27/112/35 23/113/35 43/114/35
f 42/60/9 26/59/9 64/88/9 63/115/9
f 45/58/9 60/61/9 66/110/9 65/50/9
f 26/59/9 45/58/9 65/50/9 64/88/9
f 60/61/9 42/60/9 63/115/9 66/110/9
f 23/113/35 27/112/35 68/3/35 67/49/35
f 48/111/35 43/114/35 70/51/35 69/4/35
f 27/112/35 48/111/35 69/4/35 68/3/35
f 43/114/35 23/113/35 67/49/35 70/51/35
f 12/42/5 71/41/5 79/102/5 7/116/5
f 7/116/5 79/102/5 80/64/5 20/63/5
f 76/24/4 83/47/4 81/105/4 46/25/4
f 74/117/4 75/118/4 47/119/4 44/120/4
f 28/45/5 24/44/5 78/94/5 77/65/5
f 24/44/5 72/43/5 79/102/5 78/94/5
f 73/46/5 28/45/5 77/65/5 80/64/5
f 72/43/5 73/46/5 80/64/5 79/102/5
f 44/120/4 47/119/4 82/20/4 81/105/4
f 74/117/4 44/120/4 81/105/4 83/47/4
f 47/119/4 75/118/4 84/21/4 82/20/4
f 75/118/4 74/117/4 83/47/4 84/21/4
o Cube.001_Cube.002
v 0.831503 -0.164274 0.244180
v 0.831503 -0.014884 0.393570
v 0.831503 0.473477 0.393570
v 0.831503 0.622867 0.244180
v 0.831503 -0.164274 -0.244180
v 0.831503 -0.014884 -0.393570
v 0.831503 0.622867 -0.244180
v 0.831503 0.473477 -0.393570
v 1.075938 -0.164274 0.244180
v 1.225328 -0.014884 0.244180
v 1.075938 -0.014884 0.393570
v 1.075938 0.622867 0.244180
v 1.075938 0.473477 0.393570
v 1.225328 0.473477 0.244180
v 1.075938 -0.164274 -0.244180
v 1.075938 -0.014884 -0.393570
v 1.225328 -0.014884 -0.244180
v 1.075938 0.622867 -0.244180
v 1.225328 0.473477 -0.244180
v 1.075938 0.473477 -0.393570
vt 0.422447 0.797447
vt 0.577553 0.797447
vt 0.577553 0.952553
vt 0.422447 0.952553
vt 0.422447 0.547447
vt 0.577553 0.547447
vt 0.577553 0.702553
vt 0.422447 0.702553
vt 0.672447 0.547447
vt 0.827553 0.547447
vt 0.827553 0.702553
vt 0.672447 0.702553
vt 0.422447 0.297447
vt 0.577553 0.297447
vt 0.577553 0.452553
vt 0.422447 0.452553
vt 0.327553 0.702553
vt 0.375000 0.702553
vt 0.327553 0.750000
vt 0.625000 0.797447
vt 0.625000 0.797447
vt 0.577553 0.750000
vt 0.327553 0.547447
vt 0.327553 0.500000
vt 0.375000 0.547447
vt 0.625000 0.547447
vt 0.625000 0.547447
vt 0.577553 0.500000
vt 0.172447 0.547447
vt 0.172447 0.500000
vt 0.625000 0.297447
vt 0.625000 0.452553
vt 0.172447 0.702553
vt 0.172447 0.750000
vt 0.625000 0.952553
vn 0.0000 0.0000 1.0000
vn 1.0000 0.0000 0.0000
vn 0.0000 1.0000 0.0000
vn 0.0000 0.0000 -1.0000
vn 0.5774 -0.5773 0.5774
vn 0.5774 0.5774 0.5774
vn 0.5774 -0.5773 -0.5774
vn 0.5774 0.5774 -0.5774
vn 0.0000 -0.7071 -0.7071
vn 0.0000 0.7071 -0.7071
vn 0.7071 0.0000 -0.7071
vn 0.7071 -0.7071 0.0000
vn 0.7071 0.7071 0.0000
vn 0.7071 0.0000 0.7071
vn 0.0000 -0.7071 0.7071
vn 0.0000 0.7071 0.7071
vn 0.0000 -1.0000 0.0000
usemtl None
s off
f 95/121/36 97/122/36 87/123/36 86/124/36
f 101/125/37 103/126/37 98/127/37 94/128/37
f 102/129/38 91/130/38 88/131/38 96/132/38
f 90/133/39 92/134/39 104/135/39 100/136/39
f 93/137/40 94/138/40 95/139/40
f 96/140/41 97/141/41 98/142/41
f 99/143/42 100/144/42 101/145/42
f 102/146/43 103/147/43 104/148/43
f 99/143/44 89/149/44 90/150/44 100/144/44
f 91/151/45 102/152/45 104/135/45 92/134/45
f 103/126/46 101/125/46 100/136/46 104/135/46
f 93/137/47 99/143/47 101/125/47 94/128/47
f 102/129/48 96/132/48 98/127/48 103/126/48
f 97/122/49 95/121/49 94/128/49 98/127/49
f 85/153/50 93/137/50 95/139/50 86/154/50
f 96/140/51 88/155/51 87/123/51 97/122/51
f 89/149/52 99/143/52 93/137/52 85/153/52
o Cube.002_Cube.003
v 0.831503 -0.164274 2.821212
v 0.831503 -0.014884 2.970602
v 0.831503 0.473477 2.970602
v 0.831503 0.622867 2.821212
v 0.831503 -0.164274 2.332852
v 0.831503 -0.014884 2.183462
v 0.831503 0.622867 2.332852
v 0.831503 0.473477 2.183462
v 1.075938 -0.164274 2.821212
v 1.225328 -0.014884 2.821212
v 1.075938 -0.014884 2.970602
v 1.075938 0.622867 2.821212
v 1.075938 0.473477 2.970602
v 1.225328 0.473477 2.821212
v 1.075938 -0.164274 2.332852
v 1.075938 -0.014884 2.183462
v 1.225328 -0.014884 2.332852
v 1.075938 0.622867 2.332852
v 1.225328 0.473477 2.332852
v 1.075938 0.473477 2.183462
vt 0.422447 0.797447
vt 0.577553 0.797447
vt 0.577553 0.952553
vt 0.422447 0.952553
vt 0.422447 0.547447
vt 0.577553 0.547447
vt 0.577553 0.702553
vt 0.422447 0.702553
vt 0.672447 0.547447
vt 0.827553 0.547447
vt 0.827553 0.702553
vt 0.672447 0.702553
vt 0.422447 0.297447
vt 0.577553 0.297447
vt 0.577553 0.452553
vt 0.422447 0.452553
vt 0.327553 0.702553
vt 0.375000 0.702553
vt 0.327553 0.750000
vt 0.625000 0.797447
vt 0.625000 0.797447
vt 0.577553 0.750000
vt 0.327553 0.547447
vt 0.327553 0.500000
vt 0.375000 0.547447
vt 0.625000 0.547447
vt 0.625000 0.547447
vt 0.577553 0.500000
vt 0.172447 0.547447
vt 0.172447 0.500000
vt 0.625000 0.297447
vt 0.625000 0.452553
vt 0.172447 0.702553
vt 0.172447 0.750000
vt 0.625000 0.952553
vn 0.0000 0.0000 1.0000
vn 1.0000 0.0000 0.0000
vn 0.0000 1.0000 0.0000
vn 0.0000 0.0000 -1.0000
vn 0.5773 -0.5774 0.5774
vn 0.5773 0.5774 0.5774
vn 0.5773 -0.5774 -0.5774
vn 0.5773 0.5774 -0.5774
vn 0.0000 -0.7071 -0.7071
vn 0.0000 0.7071 -0.7071
vn 0.7071 0.0000 -0.7071
vn 0.7071 -0.7071 0.0000
vn 0.7071 0.7071 0.0000
vn 0.7071 0.0000 0.7071
vn 0.0000 -0.7071 0.7071
vn 0.0000 0.7071 0.7071
vn 0.0000 -1.0000 0.0000
usemtl None
s off
f 115/156/53 117/157/53 107/158/53 106/159/53
f 121/160/54 123/161/54 118/162/54 114/163/54
f 122/164/55 111/165/55 108/166/55 116/167/55
f 110/168/56 112/169/56 124/170/56 120/171/56
f 113/172/57 114/173/57 115/174/57
f 116/175/58 117/176/58 118/177/58
f 119/178/59 120/179/59 121/180/59
f 122/181/60 123/182/60 124/183/60
f 119/178/61 109/184/61 110/185/61 120/179/61
f 111/186/62 122/187/62 124/170/62 112/169/62
f 123/161/63 121/160/63 120/171/63 124/170/63
f 113/172/64 119/178/64 121/160/64 114/163/64
f 122/164/65 116/167/65 118/162/65 123/161/65
f 117/157/66 115/156/66 114/163/66 118/162/66
f 105/188/67 113/172/67 115/174/67 106/189/67
f 116/175/68 108/190/68 107/158/68 117/157/68
f 109/184/69 119/178/69 113/172/69 105/188/69
o Cube.003_Cube.004
v -0.835378 -0.164274 2.335695
v -0.834318 -0.014884 2.186309
v -0.834318 0.473477 2.186309
v -0.835378 0.622867 2.335695
v -0.838842 -0.164274 2.824044
v -0.839901 -0.014884 2.973430
v -0.838842 0.622867 2.824044
v -0.839901 0.473477 2.973430
v -1.079804 -0.164274 2.333062
v -1.229190 -0.014884 2.332003
v -1.078744 -0.014884 2.183676
v -1.079804 0.622867 2.333062
v -1.078744 0.473477 2.183676
v -1.229190 0.473477 2.332003
v -1.083268 -0.164274 2.821410
v -1.084327 -0.014884 2.970797
v -1.232654 -0.014884 2.820351
v -1.083268 0.622867 2.821410
v -1.232654 0.473477 2.820351
v -1.084327 0.473477 2.970797
vt 0.422447 0.797447
vt 0.577553 0.797447
vt 0.577553 0.952553
vt 0.422447 0.952553
vt 0.422447 0.547447
vt 0.577553 0.547447
vt 0.577553 0.702553
vt 0.422447 0.702553
vt 0.672447 0.547447
vt 0.827553 0.547447
vt 0.827553 0.702553
vt 0.672447 0.702553
vt 0.422447 0.297447
vt 0.577553 0.297447
vt 0.577553 0.452553
vt 0.422447 0.452553
vt 0.327553 0.702553
vt 0.375000 0.702553
vt 0.327553 0.750000
vt 0.625000 0.797447
vt 0.625000 0.797447
vt 0.577553 0.750000
vt 0.327553 0.547447
vt 0.327553 0.500000
vt 0.375000 0.547447
vt 0.625000 0.547447
vt 0.625000 0.547447
vt 0.577553 0.500000
vt 0.172447 0.547447
vt 0.172447 0.500000
vt 0.625000 0.297447
vt 0.625000 0.452553
vt 0.172447 0.702553
vt 0.172447 0.750000
vt 0.625000 0.952553
vn 0.0108 0.0000 -0.9999
vn -1.0000 0.0000 -0.0071
vn 0.0000 1.0000 0.0000
vn -0.0108 0.0000 0.9999
vn -0.5732 -0.5773 -0.5814
vn -0.5732 0.5774 -0.5814
vn -0.5814 -0.5774 0.5732
vn -0.5814 0.5774 0.5732
vn -0.0076 -0.7071 0.7071
vn -0.0076 0.7071 0.7071
vn -0.7121 0.0000 0.7021
vn -0.7071 -0.7071 -0.0050
vn -0.7071 0.7071 -0.0050
vn -0.7021 0.0000 -0.7121
vn 0.0076 -0.7071 -0.7071
vn 0.0076 0.7071 -0.7071
vn 0.0000 -1.0000 0.0000
usemtl None
s off
f 135/191/70 137/192/70 127/193/70 126/194/70
f 141/195/71 143/196/71 138/197/71 134/198/71
f 142/199/72 131/200/72 128/201/72 136/202/72
f 130/203/73 132/204/73 144/205/73 140/206/73
f 133/207/74 134/208/74 135/209/74
f 136/210/75 137/211/75 138/212/75
f 139/213/76 140/214/76 141/215/76
f 142/216/77 143/217/77 144/218/77
f 139/213/78 129/219/78 130/220/78 140/214/78
f 131/221/79 142/222/79 144/205/79 132/204/79
f 143/196/80 141/195/80 140/206/80 144/205/80
f 133/207/81 139/213/81 141/195/81 134/198/81
f 142/199/82 136/202/82 138/197/82 143/196/82
f 137/192/83 135/191/83 134/198/83 138/197/83
f 125/223/84 133/207/84 135/209/84 126/224/84
f 136/210/85 128/225/85 127/193/85 137/192/85
f 129/219/86 139/213/86 133/207/86 125/223/86
o Cube.004_Cube.005
v -0.817101 -0.164274 -0.241272
v -0.816042 -0.014884 -0.390658
v -0.816042 0.473477 -0.390658
v -0.817101 0.622867 -0.241272
v -0.820565 -0.164274 0.247077
v -0.821624 -0.014884 0.396463
v -0.820565 0.622867 0.247077
v -0.821624 0.473477 0.396463
v -1.061527 -0.164274 -0.243905
v -1.210913 -0.014884 -0.244964
v -1.060467 -0.014884 -0.393291
v -1.061527 0.622867 -0.243905
v -1.060467 0.473477 -0.393291
v -1.210913 0.473477 -0.244964
v -1.064991 -0.164274 0.244443
v -1.066050 -0.014884 0.393829
v -1.214377 -0.014884 0.243384
v -1.064991 0.622867 0.244443
v -1.214377 0.473477 0.243384
v -1.066050 0.473477 0.393829
vt 0.422447 0.797447
vt 0.577553 0.797447
vt 0.577553 0.952553
vt 0.422447 0.952553
vt 0.422447 0.547447
vt 0.577553 0.547447
vt 0.577553 0.702553
vt 0.422447 0.702553
vt 0.672447 0.547447
vt 0.827553 0.547447
vt 0.827553 0.702553
vt 0.672447 0.702553
vt 0.422447 0.297447
vt 0.577553 0.297447
vt 0.577553 0.452553
vt 0.422447 0.452553
vt 0.327553 0.702553
vt 0.375000 0.702553
vt 0.327553 0.750000
vt 0.625000 0.797447
vt 0.625000 0.797447
vt 0.577553 0.750000
vt 0.327553 0.547447
vt 0.327553 0.500000
vt 0.375000 0.547447
vt 0.625000 0.547447
vt 0.625000 0.547447
vt 0.577553 0.500000
vt 0.172447 0.547447
vt 0.172447 0.500000
vt 0.625000 0.297447
vt 0.625000 0.452553
vt 0.172447 0.702553
vt 0.172447 0.750000
vt 0.625000 0.952553
vn 0.0108 0.0000 -0.9999
vn -1.0000 0.0000 -0.0071
vn 0.0000 1.0000 0.0000
vn -0.0108 0.0000 0.9999
vn -0.5732 -0.5774 -0.5814
vn -0.5732 0.5774 -0.5814
vn -0.5814 -0.5774 0.5732
vn -0.5814 0.5774 0.5732
vn -0.0076 -0.7071 0.7071
vn -0.0076 0.7071 0.7071
vn -0.7121 0.0000 0.7021
vn -0.7071 -0.7071 -0.0050
vn -0.7071 0.7071 -0.0050
vn -0.7021 0.0000 -0.7121
vn 0.0076 -0.7071 -0.7071
vn 0.0076 0.7071 -0.7071
vn 0.0000 -1.0000 0.0000
usemtl None
s off
f 155/226/87 157/227/87 147/228/87 146/229/87
f 161/230/88 163/231/88 158/232/88 154/233/88
f 162/234/89 151/235/89 148/236/89 156/237/89
f 150/238/90 152/239/90 164/240/90 160/241/90
f 153/242/91 154/243/91 155/244/91
f 156/245/92 157/246/92 158/247/92
f 159/248/93 160/249/93 161/250/93
f 162/251/94 163/252/94 164/253/94
f 159/248/95 149/254/95 150/255/95 160/249/95
f 151/256/96 162/257/96 164/240/96 152/239/96
f 163/231/97 161/230/97 160/241/97 164/240/97
f 153/242/98 159/248/98 161/230/98 154/233/98
f 162/234/99 156/237/99 158/232/99 163/231/99
f 157/227/100 155/226/100 154/233/100 158/232/100
f 145/258/101 153/242/101 155/244/101 146/259/101
f 156/245/102 148/260/102 147/228/102 157/227/102
f 149/254/103 159/248/103 153/242/103 145/258/103
o Plane
v 14.418394 16.232788 38.083279
v 16.418394 16.232788 38.083279
v 14.418394 16.232788 36.083279
v 16.418394 16.232788 36.083279
vt 0.000000 0.000000
vt 1.000000 0.000000
vt 1.000000 1.000000
vt 0.000000 1.000000
vn 0.0000 1.0000 0.0000
usemtl None
s off
f 165/261/104 166/262/104 168/263/104 167/264/104
