# Blender v2.92.0 OBJ File: 'tree.blend'
# www.blender.org
mtllib tree.mtl
o Cube_Cube.001
v -0.678006 -4.642557 0.678006
v -0.535833 -4.209700 0.535833
v -0.678006 -4.642557 -0.678006
v -0.535833 -4.209700 -0.535833
v 0.678006 -4.642557 0.678006
v 0.535833 -4.209700 0.535833
v 0.678006 -4.642557 -0.678006
v 0.535833 -4.209700 -0.535833
v -0.678006 -4.533854 0.678006
v -0.678006 -4.533854 -0.678006
v 0.678006 -4.533854 -0.678006
v 0.678006 -4.533854 0.678006
v 0.000000 5.719296 0.000000
v -1.894752 -1.061262 1.894752
v -1.894752 -1.061262 -1.894752
v 1.894752 -1.061262 1.894752
v 1.894752 -1.061262 -1.894752
v -1.894752 -1.061262 0.000000
v 1.894752 -1.061262 0.000000
v 0.000000 -1.061262 -1.894752
v 0.000000 -1.061262 1.894752
v 0.000000 -0.788584 0.000000
v -1.894752 -0.628416 -0.947376
v 0.947376 -0.628416 -1.894752
v 1.894752 -0.628416 0.947376
v -0.947376 -0.628416 1.894752
v 0.947376 2.329017 -0.947376
v -0.947376 2.329017 -0.947376
v 0.947376 2.329017 0.947376
v -0.947376 2.329017 0.947376
v -1.894752 -0.628416 0.947376
v 1.894752 -0.628416 -0.947376
v 0.947376 -0.788584 0.000000
v -0.947376 -0.628416 -1.894752
v 0.947376 -0.628416 1.894752
v -0.947376 -0.788584 0.000000
v 0.000000 -0.788584 -0.947376
v 0.000000 -0.788584 0.947376
v 0.947376 -0.788584 0.947376
v 0.947376 -0.788584 -0.947376
v -0.947376 -0.788584 -0.947376
v 0.000000 0.633877 1.496207
v -1.496207 0.633877 0.000000
v 1.496207 0.633877 0.000000
v -0.947376 -0.788584 0.947376
v 0.000000 0.633877 -1.496207
vt 0.375000 0.000000
vt 0.625000 0.000000
vt 0.625000 0.250000
vt 0.375000 0.250000
vt 0.625000 0.500000
vt 0.375000 0.500000
vt 0.625000 0.750000
vt 0.375000 0.750000
vt 0.625000 1.000000
vt 0.375000 1.000000
vt 0.125000 0.500000
vt 0.125000 0.750000
vt 0.695302 0.679698
vt 0.695302 0.570302
vt 0.750000 0.625000
vt 0.804698 0.679698
vt 0.804698 0.570302
vt 0.875000 0.500000
vt 0.875000 0.750000
vt 0.750000 0.583976
vt 0.777349 0.570302
vt 0.750000 0.570302
vt 0.722651 0.570302
vt 0.777349 0.652349
vt 0.804698 0.652349
vt 0.804698 0.679698
vt 0.777349 0.679698
vt 0.708976 0.625000
vt 0.695302 0.597651
vt 0.695302 0.625000
vt 0.695302 0.652349
vt 0.791024 0.625000
vt 0.804698 0.625000
vt 0.804698 0.597651
vt 0.750000 0.666024
vt 0.722651 0.679698
vt 0.750000 0.679698
vt 0.777349 0.597651
vt 0.777349 0.625000
vt 0.722651 0.597651
vt 0.750000 0.597651
vt 0.750000 0.625000
vt 0.722651 0.625000
vt 0.722651 0.652349
vt 0.750000 0.652349
vt 0.695302 0.679698
vt 0.695302 0.570302
vt 0.804698 0.570302
vt 0.777349 0.652349
vt 0.722651 0.652349
vt 0.777349 0.597651
vt 0.722651 0.597651
vn -1.0000 0.0000 0.0000
vn 0.0000 0.0000 -1.0000
vn 1.0000 0.0000 0.0000
vn 0.0000 0.0000 1.0000
vn 0.0000 -1.0000 0.0000
vn 0.9985 0.0539 0.0000
vn -0.9158 0.4017 0.0000
vn 0.0000 0.4017 -0.9158
vn 0.9158 0.4017 0.0000
vn 0.0000 0.4017 0.9158
vn 0.0000 -0.2289 0.9735
vn -0.9985 0.0539 0.0000
vn 0.0000 0.0539 0.9985
vn 0.0000 0.0539 -0.9985
vn -0.1410 0.9799 0.1410
vn -0.9735 -0.2289 0.0000
vn 0.9735 -0.2289 0.0000
vn 0.0000 -0.2289 -0.9735
vn -0.0578 0.9733 0.2223
vn 0.0000 1.0000 0.0000
vn -0.2223 0.9733 0.0578
vn 0.1410 0.9799 0.1410
vn 0.0578 0.9733 -0.2223
vn 0.0578 0.9733 0.2223
vn 0.1410 0.9799 -0.1410
vn -0.2223 0.9733 -0.0578
vn 0.2223 0.9733 -0.0578
vn -0.1410 0.9799 -0.1410
vn 0.0724 -0.3043 -0.9498
vn 0.0000 -0.2823 -0.9593
vn -0.0724 -0.3043 -0.9498
vn 0.9498 -0.3043 0.0724
vn 0.9593 -0.2823 0.0000
vn 0.9498 -0.3043 -0.0724
vn -0.9498 -0.3043 -0.0724
vn -0.9593 -0.2823 0.0000
vn -0.9498 -0.3043 0.0724
vn 0.2223 0.9733 0.0578
vn -0.0578 0.9733 -0.2223
vn -0.0724 -0.3043 0.9498
vn 0.0000 -0.2823 0.9593
vn 0.0724 -0.3043 0.9498
usemtl None
s off
f 1/1/1 9/2/1 10/3/1 3/4/1
f 3/4/2 10/3/2 11/5/2 7/6/2
f 7/6/3 11/5/3 12/7/3 5/8/3
f 5/8/4 12/7/4 9/9/4 1/10/4
f 3/11/5 7/6/5 5/8/5 1/12/5
f 6/13/6 8/14/6 13/15/6
f 2/16/7 4/17/7 10/18/7 9/19/7
f 4/17/8 8/14/8 11/5/8 10/18/8
f 8/14/9 6/13/9 12/7/9 11/5/9
f 6/13/10 2/16/10 9/19/10 12/7/10
f 46/20/11 34/21/11 20/22/11 24/23/11
f 4/17/12 2/16/12 13/15/12
f 2/16/13 6/13/13 13/15/13
f 8/14/14 4/17/14 13/15/14
f 45/24/15 31/25/15 14/26/15 26/27/15
f 44/28/16 32/29/16 19/30/16 25/31/16
f 43/32/17 31/25/17 18/33/17 23/34/17
f 42/35/18 35/36/18 21/37/18 26/27/18
f 41/38/19 23/34/19 18/33/19 36/39/19
f 40/40/20 37/41/20 22/42/20 33/43/20
f 39/44/21 38/45/21 21/37/21 35/36/21
f 25/31/22 39/44/22 35/36/22 16/46/22
f 19/30/23 33/43/23 39/44/23 25/31/23
f 33/43/20 22/42/20 38/45/20 39/44/20
f 32/29/24 40/40/24 33/43/24 19/30/24
f 17/47/25 24/23/25 40/40/25 32/29/25
f 24/23/26 20/22/26 37/41/26 40/40/26
f 37/41/20 41/38/20 36/39/20 22/42/20
f 20/22/27 34/21/27 41/38/27 37/41/27
f 34/21/28 15/48/28 23/34/28 41/38/28
f 30/49/29 42/35/29 26/27/29 14/26/29
f 13/15/30 29/50/30 42/35/30 30/49/30
f 29/50/31 16/46/31 35/36/31 42/35/31
f 28/51/32 43/32/32 23/34/32 15/48/32
f 13/15/33 30/49/33 43/32/33 28/51/33
f 30/49/34 14/26/34 31/25/34 43/32/34
f 29/50/35 44/28/35 25/31/35 16/46/35
f 13/15/36 27/52/36 44/28/36 29/50/36
f 27/52/37 17/47/37 32/29/37 44/28/37
f 38/45/38 45/24/38 26/27/38 21/37/38
f 22/42/20 36/39/20 45/24/20 38/45/20
f 36/39/39 18/33/39 31/25/39 45/24/39
f 27/52/40 46/20/40 24/23/40 17/47/40
f 13/15/41 28/51/41 46/20/41 27/52/41
f 28/51/42 15/48/42 34/21/42 46/20/42
