# Blender v2.92.0 OBJ File: ''
# www.blender.org
mtllib racing-track.mtl
o Cube_Cube.002
v -1.208881 -0.190599 5.548493
v -2.000360 -0.190599 5.220652
v 1.808152 -0.190599 5.220652
v 1.016672 -0.190599 5.548493
v 1.208881 -0.190599 -5.548493
v 2.000360 -0.190599 -5.220652
v -2.000360 -0.190599 -5.220652
v -1.208881 -0.190599 -5.548493
v -3.011279 -0.190599 -3.746095
v -2.683437 -0.190599 -4.537575
v 2.683437 -0.190599 -4.537575
v 3.011279 -0.190599 -3.746095
v 3.011279 -0.190599 3.553887
v 2.683437 -0.190599 4.345366
v -2.683437 -0.190599 4.537575
v -3.011279 -0.190599 3.746095
v -2.000360 -0.337577 5.220652
v -1.208881 -0.337577 5.548493
v 1.016672 -0.337577 5.548493
v 1.808152 -0.337577 5.220652
v 2.000360 -0.337577 -5.220652
v 1.208881 -0.337577 -5.548493
v -1.208881 -0.337577 -5.548493
v -2.000360 -0.337577 -5.220652
v -2.683437 -0.337577 -4.537575
v -3.011279 -0.337577 -3.746095
v 3.011279 -0.337577 -3.746095
v 2.683437 -0.337577 -4.537575
v 2.683437 -0.337577 4.345366
v 3.011279 -0.337577 3.553887
v -3.011279 -0.337577 3.746095
v -2.683437 -0.337577 4.537575
v -1.457425 -0.337577 4.408091
v -1.018227 -0.337577 4.590013
v 0.826018 -0.337577 4.590013
v 1.265216 -0.337577 4.408091
v 1.457425 -0.337577 -4.408091
v 1.018227 -0.337577 -4.590013
v -1.018227 -0.337577 -4.590013
v -1.457425 -0.337577 -4.408091
v -1.870876 -0.337577 -3.994639
v -2.052798 -0.337577 -3.555442
v 2.052798 -0.337577 -3.555442
v 1.870876 -0.337577 -3.994639
v 1.870876 -0.337577 3.802431
v 2.052798 -0.337577 3.363233
v -2.052798 -0.337577 3.555442
v -1.870876 -0.337577 3.994639
v -1.018227 -0.190599 4.590013
v -1.457425 -0.190599 4.408091
v 1.265216 -0.190599 4.408091
v 0.826018 -0.190599 4.590013
v 1.018227 -0.190599 -4.590013
v 1.457425 -0.190599 -4.408091
v -1.457425 -0.190599 -4.408091
v -1.018227 -0.190599 -4.590013
v -2.052798 -0.190599 -3.555442
v -1.870876 -0.190599 -3.994639
v 1.870876 -0.190599 -3.994639
v 2.052798 -0.190599 -3.555442
v 2.052798 -0.190599 3.363233
v 1.870876 -0.190599 3.802431
v -1.870876 -0.190599 3.994639
v -2.052798 -0.190599 3.555442
vt 0.375000 0.540606
vt 0.625000 0.540606
vt 0.625000 0.705064
vt 0.375000 0.705064
vt 0.375000 0.832797
vt 0.625000 0.832797
vt 0.625000 0.925181
vt 0.375000 0.925181
vt 0.375000 0.000000
vt 0.625000 0.000000
vt 0.625000 0.007386
vt 0.375000 0.007386
vt 0.375000 0.792557
vt 0.625000 0.792557
vt 0.375000 0.425181
vt 0.625000 0.425181
vt 0.625000 0.465422
vt 0.375000 0.465422
vt 0.375000 0.324819
vt 0.625000 0.324819
vt 0.375000 0.284578
vt 0.625000 0.284578
vt 0.625000 0.022775
vt 0.375000 0.022775
vt 0.375000 0.209394
vt 0.625000 0.209394
vt 0.625000 0.240834
vt 0.375000 0.240834
vt 0.375000 0.509166
vt 0.625000 0.509166
vt 0.625000 0.736504
vt 0.375000 0.736504
vt 0.625000 0.040606
vt 0.375000 0.040606
vt 0.792267 0.728407
vt 0.810499 0.724308
vt 0.833036 0.742614
vt 0.800181 0.750000
vt 0.697480 0.724308
vt 0.715711 0.728407
vt 0.707797 0.750000
vt 0.674942 0.742614
vt 0.707733 0.521593
vt 0.689501 0.525692
vt 0.666964 0.507386
vt 0.699819 0.500000
vt 0.810499 0.525692
vt 0.792267 0.521593
vt 0.800181 0.500000
vt 0.833036 0.507386
vt 0.835213 0.544901
vt 0.827661 0.535006
vt 0.861391 0.522775
vt 0.875000 0.540606
vt 0.672339 0.535006
vt 0.664787 0.544901
vt 0.638609 0.522775
vt 0.664787 0.700769
vt 0.672339 0.710664
vt 0.638609 0.722895
vt 0.827661 0.714994
vt 0.835213 0.705099
vt 0.875000 0.709394
vt 0.861391 0.727225
vt 0.189501 0.724308
vt 0.207733 0.728407
vt 0.199819 0.750000
vt 0.166964 0.742614
vt 0.284288 0.728407
vt 0.302520 0.724308
vt 0.325057 0.742614
vt 0.292203 0.750000
vt 0.310499 0.525692
vt 0.292267 0.521593
vt 0.300181 0.500000
vt 0.333036 0.507386
vt 0.207733 0.521593
vt 0.189501 0.525692
vt 0.166964 0.507386
vt 0.199819 0.500000
vt 0.172339 0.535006
vt 0.164787 0.544901
vt 0.125000 0.540606
vt 0.138609 0.522775
vt 0.335213 0.544901
vt 0.327661 0.535006
vt 0.361391 0.522775
vt 0.327661 0.710664
vt 0.335213 0.700769
vt 0.361391 0.722895
vt 0.164787 0.705099
vt 0.172339 0.714994
vt 0.138609 0.727225
vt 0.125000 0.709394
vn 1.0000 0.0000 0.0000
vn 0.0000 0.0000 1.0000
vn -0.3827 0.0000 0.9239
vn 0.3827 0.0000 0.9239
vn 0.3827 0.0000 -0.9239
vn 0.0000 0.0000 -1.0000
vn -0.3827 0.0000 -0.9239
vn -0.7071 0.0000 0.7071
vn -0.9239 0.0000 -0.3827
vn -0.7071 0.0000 -0.7071
vn 0.9239 -0.0000 -0.3827
vn 0.7071 0.0000 -0.7071
vn 0.9239 0.0000 0.3827
vn 0.7071 0.0000 0.7071
vn -0.9239 -0.0000 0.3827
vn -1.0000 0.0000 0.0000
vn 0.0000 1.0000 0.0000
vn 0.0000 -1.0000 0.0000
usemtl None
s off
f 27/1/1 12/2/1 13/3/1 30/4/1
f 19/5/2 4/6/2 1/7/2 18/8/2
f 18/9/3 1/10/3 2/11/3 17/12/3
f 4/6/4 19/5/4 20/13/4 3/14/4
f 22/15/5 5/16/5 6/17/5 21/18/5
f 23/19/6 8/20/6 5/16/6 22/15/6
f 8/20/7 23/19/7 24/21/7 7/22/7
f 17/12/8 2/11/8 15/23/8 32/24/8
f 26/25/9 9/26/9 10/27/9 25/28/9
f 7/22/10 24/21/10 25/28/10 10/27/10
f 12/2/11 27/1/11 28/29/11 11/30/11
f 11/30/12 28/29/12 21/18/12 6/17/12
f 30/4/13 13/3/13 14/31/13 29/32/13
f 3/14/14 20/13/14 29/32/14 14/31/14
f 16/33/15 31/34/15 32/24/15 15/23/15
f 31/34/16 16/33/16 9/26/16 26/25/16
f 49/35/17 50/36/17 2/37/17 1/38/17
f 51/39/17 52/40/17 4/41/17 3/42/17
f 52/40/17 49/35/17 1/38/17 4/41/17
f 53/43/17 54/44/17 6/45/17 5/46/17
f 55/47/17 56/48/17 8/49/17 7/50/17
f 56/48/17 53/43/17 5/46/17 8/49/17
f 57/51/17 58/52/17 10/53/17 9/54/17
f 58/52/17 55/47/17 7/50/17 10/53/17
f 59/55/17 60/56/17 12/2/17 11/57/17
f 54/44/17 59/55/17 11/57/17 6/45/17
f 61/58/17 62/59/17 14/60/17 13/3/17
f 62/59/17 51/39/17 3/42/17 14/60/17
f 60/56/17 61/58/17 13/3/17 12/2/17
f 63/61/17 64/62/17 16/63/17 15/64/17
f 64/62/17 57/51/17 9/54/17 16/63/17
f 50/36/17 63/61/17 15/64/17 2/37/17
f 33/65/18 34/66/18 18/67/18 17/68/18
f 35/69/18 36/70/18 20/71/18 19/72/18
f 34/66/18 35/69/18 19/72/18 18/67/18
f 37/73/18 38/74/18 22/75/18 21/76/18
f 39/77/18 40/78/18 24/79/18 23/80/18
f 38/74/18 39/77/18 23/80/18 22/75/18
f 41/81/18 42/82/18 26/83/18 25/84/18
f 40/78/18 41/81/18 25/84/18 24/79/18
f 43/85/18 44/86/18 28/87/18 27/1/18
f 44/86/18 37/73/18 21/76/18 28/87/18
f 45/88/18 46/89/18 30/4/18 29/90/18
f 36/70/18 45/88/18 29/90/18 20/71/18
f 46/89/18 43/85/18 27/1/18 30/4/18
f 47/91/18 48/92/18 32/93/18 31/94/18
f 42/82/18 47/91/18 31/94/18 26/83/18
f 48/92/18 33/65/18 17/68/18 32/93/18
